<svg id="themedPhoneIcon" data-name="Layer 1" xmlns="http://www.w3.org/2000/svg" viewBox="0 0 128 128" fill='#224a23'>
    <path d="M95.167,0H32.833a5.756,5.756,0,0,0-5.75,5.75v116.5a5.756,5.756,0,0,0,5.75,5.75H95.167a5.756,5.756,0,0,0,5.75-5.75V5.75A5.756,5.756,0,0,0,95.167,0ZM30.583,5.75a2.253,2.253,0,0,1,2.25-2.25H95.167a2.253,2.253,0,0,1,2.25,2.25V14.1H30.583ZM97.417,17.6v88.162H30.583V17.6Zm0,104.646a2.253,2.253,0,0,1-2.25,2.25H32.833a2.253,2.253,0,0,1-2.25-2.25V109.267H97.417Z"/>
    <path d="M68.75,7.053h-9.5a1.75,1.75,0,0,0,0,3.5h9.5a1.75,1.75,0,0,0,0-3.5Z"/>
    <path d="M81.792,7.053H78.458a1.75,1.75,0,0,0,0,3.5h3.334a1.75,1.75,0,0,0,0-3.5Z"/>
    <path d="M55.625,121.642h16.75a3.755,3.755,0,0,0,3.75-3.75v-2.017a3.755,3.755,0,0,0-3.75-3.75H55.625a3.754,3.754,0,0,0-3.75,3.75v2.017A3.754,3.754,0,0,0,55.625,121.642Zm-.25-5.767a.25.25,0,0,1,.25-.25h16.75a.25.25,0,0,1,.25.25v2.017a.25.25,0,0,1-.25.25H55.625a.25.25,0,0,1-.25-.25Z"/>
    <path fill="green" d="M59.172,76.591a11.309,11.309,0,0,0,15.976,0l1.836-1.837a4.3,4.3,0,0,0,0-6.074l-2.868-2.87a4.3,4.3,0,0,0-6.075,0l-1.312,1.312-5.851-5.852,1.312-1.312a4.3,4.3,0,0,0,0-6.075l-2.869-2.868a4.294,4.294,0,0,0-6.075,0l-1.837,1.836a11.3,11.3,0,0,0,0,15.976ZM53.884,55.326l1.837-1.836a.8.8,0,0,1,1.125,0l2.868,2.868a.8.8,0,0,1,0,1.126l-2.549,2.549a1.749,1.749,0,0,0,0,2.475l8.326,8.326a1.749,1.749,0,0,0,2.475,0l2.549-2.549a.8.8,0,0,1,1.126,0l2.868,2.869a.8.8,0,0,1,0,1.125l-1.836,1.837a7.806,7.806,0,0,1-11.027,0l-7.763-7.764a7.8,7.8,0,0,1,0-11.026Z"/>
    <path fill="green" d="M63.172,89a25,25,0,1,0-25-25A25.028,25.028,0,0,0,63.172,89Zm0-46.5A21.5,21.5,0,1,1,41.672,64,21.524,21.524,0,0,1,63.172,42.5Z"/>
</svg>