<?xml version="1.0" encoding="iso-8859-1"?>
<svg version="1.1" id="Layer_1" xmlns="http://www.w3.org/2000/svg" xmlns:xlink="http://www.w3.org/1999/xlink" 
	 viewBox="0 0 480 480" xml:space="preserve">
	<path fill="#ffdd40" d="M160,112c83.92,0,152,68.08,152,152s-68.08,152-152,152S8,347.92,8,264S76.08,112,160,112z M274,264
	c0-62.96-51.04-114-114-114S46,201.04,46,264s51.04,114,114,114S274,326.96,274,264z" stroke="purple"/>
	<path d="M160,386c-67.272,0-122-54.728-122-122s54.728-122,122-122s122,54.728,122,122S227.272,386,160,386z M160,158
	c-58.448,0-106,47.552-106,106s47.552,106,106,106s106-47.552,106-106S218.448,158,160,158z" fill="#224a23"/>
	<path d="M160,424C71.776,424,0,352.224,0,264s71.776-160,160-160s160,71.776,160,160S248.224,424,160,424z M160,120
	c-79.4,0-144,64.6-144,144s64.6,144,144,144s144-64.6,144-144S239.4,120,160,120z" fill="#224a23"/>
	<path fill="#89c68b" d="M368,64.48l24,36l-40.48,50.64c-3.84,4.8-11.2,4.8-15.04,0L296,100.48l24-36H368z"/>
	<path fill="#ffdd40" d="M344,160c70.72,0,128,57.28,128,128s-57.28,128-128,128s-128-57.28-128-128S273.28,160,344,160z
	 M440,288c0-53.04-42.96-96-96-96s-96,42.96-96,96s42.96,96,96,96S440,341.04,440,288z"/>
	<path fill="#224a23" d="M344,184c-57.344,0-104,46.656-104,104s46.656,104,104,104s104-46.656,104-104S401.344,184,344,184z M344,376
	c-48.52,0-88-39.48-88-88s39.48-88,88-88s88,39.48,88,88S392.52,376,344,376z"/>
	<path fill="#224a23" d="M372.024,154.936l5.864-2.936H384c4.424,0,8-3.584,8-8s-3.576-8-8-8h-8c-0.92,0-1.784,0.32-2.648,0.624l24.896-31.144
	c0.136-0.168,0.184-0.368,0.304-0.536c0.2-0.288,0.352-0.592,0.512-0.904c0.28-0.56,0.488-1.136,0.632-1.736
	c0.08-0.32,0.16-0.624,0.192-0.96c0.088-0.808,0.048-1.616-0.112-2.424c-0.024-0.128,0.016-0.248-0.016-0.376
	c-0.008-0.024-0.024-0.04-0.032-0.072c-0.216-0.848-0.56-1.672-1.072-2.424l-24-36.24C373.168,57.576,370.672,56,368,56h-48
	c-2.672,0-5.168,1.576-6.656,3.8l-24,36.12c-1.112,1.664-1.448,3.688-1.184,5.576c-0.664,3.968,1.752,7.72,5.544,8.888
	l20.952,26.224C313.792,136.304,312.92,136,312,136h-8c-4.424,0-8,3.584-8,8s3.576,8,8,8h6.112l5.872,2.936
	C254.392,167.888,208,222.616,208,288c0,74.992,61.008,136,136,136s136-61.008,136-136C480,222.616,433.608,167.888,372.024,154.936
	z M342.728,146.128l-24.496-30.64l24.2,4.84c0.512,0.104,1.048,0.16,1.568,0.16c0.648,0,1.304-0.08,1.936-0.24l25.032-6.256
	l-25.688,32.136C344.488,147.112,343.504,147.112,342.728,146.128z M324.28,72h39.44l15.328,23.232l-35.24,8.928l-35.936-7.368
	L324.28,72z M344,408c-66.168,0-120-53.832-120-120s53.832-120,120-120s120,53.832,120,120S410.168,408,344,408z"/>
</svg>