<?xml version="1.0" encoding="utf-8"?>
<svg xmlns="http://www.w3.org/2000/svg" xmlns:xlink="http://www.w3.org/1999/xlink" xml:space="preserve" viewBox="0 0 888 888">
    <rect width="888" height="888" fill="#ffffff" x="0" y="0"/>
    <g fill="#000000">
        <g transform="translate(240,48) scale(4.12)">
            <rect width="6" height="6"/>
        </g>
        <g transform="translate(264,48) scale(4.12)">
            <rect width="6" height="6"/>
        </g>
        <g transform="translate(288,48) scale(4.12)">
            <rect width="6" height="6"/>
        </g>
        <g transform="translate(336,48) scale(4.12)">
            <rect width="6" height="6"/>
        </g>
        <g transform="translate(360,48) scale(4.12)">
            <rect width="6" height="6"/>
        </g>
        <g transform="translate(384,48) scale(4.12)">
            <rect width="6" height="6"/>
        </g>
        <g transform="translate(432,48) scale(4.12)">
            <rect width="6" height="6"/>
        </g>
        <g transform="translate(456,48) scale(4.12)">
            <rect width="6" height="6"/>
        </g>
        <g transform="translate(480,48) scale(4.12)">
            <rect width="6" height="6"/>
        </g>
        <g transform="translate(528,48) scale(4.12)">
            <rect width="6" height="6"/>
        </g>
        <g transform="translate(576,48) scale(4.12)">
            <rect width="6" height="6"/>
        </g>
        <g transform="translate(264,72) scale(4.12)">
            <rect width="6" height="6"/>
        </g>
        <g transform="translate(288,72) scale(4.12)">
            <rect width="6" height="6"/>
        </g>
        <g transform="translate(312,72) scale(4.12)">
            <rect width="6" height="6"/>
        </g>
        <g transform="translate(360,72) scale(4.12)">
            <rect width="6" height="6"/>
        </g>
        <g transform="translate(384,72) scale(4.12)">
            <rect width="6" height="6"/>
        </g>
        <g transform="translate(432,72) scale(4.12)">
            <rect width="6" height="6"/>
        </g>
        <g transform="translate(456,72) scale(4.12)">
            <rect width="6" height="6"/>
        </g>
        <g transform="translate(576,72) scale(4.12)">
            <rect width="6" height="6"/>
        </g>
        <g transform="translate(312,96) scale(4.12)">
            <rect width="6" height="6"/>
        </g>
        <g transform="translate(336,96) scale(4.12)">
            <rect width="6" height="6"/>
        </g>
        <g transform="translate(384,96) scale(4.12)">
            <rect width="6" height="6"/>
        </g>
        <g transform="translate(408,96) scale(4.12)">
            <rect width="6" height="6"/>
        </g>
        <g transform="translate(432,96) scale(4.12)">
            <rect width="6" height="6"/>
        </g>
        <g transform="translate(456,96) scale(4.12)">
            <rect width="6" height="6"/>
        </g>
        <g transform="translate(480,96) scale(4.12)">
            <rect width="6" height="6"/>
        </g>
        <g transform="translate(504,96) scale(4.12)">
            <rect width="6" height="6"/>
        </g>
        <g transform="translate(600,96) scale(4.12)">
            <rect width="6" height="6"/>
        </g>
        <g transform="translate(624,96) scale(4.12)">
            <rect width="6" height="6"/>
        </g>
        <g transform="translate(264,120) scale(4.12)">
            <rect width="6" height="6"/>
        </g>
        <g transform="translate(312,120) scale(4.12)">
            <rect width="6" height="6"/>
        </g>
        <g transform="translate(408,120) scale(4.12)">
            <rect width="6" height="6"/>
        </g>
        <g transform="translate(432,120) scale(4.12)">
            <rect width="6" height="6"/>
        </g>
        <g transform="translate(504,120) scale(4.12)">
            <rect width="6" height="6"/>
        </g>
        <g transform="translate(528,120) scale(4.12)">
            <rect width="6" height="6"/>
        </g>
        <g transform="translate(552,120) scale(4.12)">
            <rect width="6" height="6"/>
        </g>
        <g transform="translate(576,120) scale(4.12)">
            <rect width="6" height="6"/>
        </g>
        <g transform="translate(600,120) scale(4.12)">
            <rect width="6" height="6"/>
        </g>
        <g transform="translate(240,144) scale(4.12)">
            <rect width="6" height="6"/>
        </g>
        <g transform="translate(264,144) scale(4.12)">
            <rect width="6" height="6"/>
        </g>
        <g transform="translate(288,144) scale(4.12)">
            <rect width="6" height="6"/>
        </g>
        <g transform="translate(360,144) scale(4.12)">
            <rect width="6" height="6"/>
        </g>
        <g transform="translate(432,144) scale(4.12)">
            <rect width="6" height="6"/>
        </g>
        <g transform="translate(456,144) scale(4.12)">
            <rect width="6" height="6"/>
        </g>
        <g transform="translate(480,144) scale(4.12)">
            <rect width="6" height="6"/>
        </g>
        <g transform="translate(552,144) scale(4.12)">
            <rect width="6" height="6"/>
        </g>
        <g transform="translate(624,144) scale(4.12)">
            <rect width="6" height="6"/>
        </g>
        <g transform="translate(240,168) scale(4.12)">
            <rect width="6" height="6"/>
        </g>
        <g transform="translate(312,168) scale(4.12)">
            <rect width="6" height="6"/>
        </g>
        <g transform="translate(360,168) scale(4.12)">
            <rect width="6" height="6"/>
        </g>
        <g transform="translate(528,168) scale(4.12)">
            <rect width="6" height="6"/>
        </g>
        <g transform="translate(552,168) scale(4.12)">
            <rect width="6" height="6"/>
        </g>
        <g transform="translate(576,168) scale(4.12)">
            <rect width="6" height="6"/>
        </g>
        <g transform="translate(240,192) scale(4.12)">
            <rect width="6" height="6"/>
        </g>
        <g transform="translate(288,192) scale(4.12)">
            <rect width="6" height="6"/>
        </g>
        <g transform="translate(336,192) scale(4.12)">
            <rect width="6" height="6"/>
        </g>
        <g transform="translate(384,192) scale(4.12)">
            <rect width="6" height="6"/>
        </g>
        <g transform="translate(432,192) scale(4.12)">
            <rect width="6" height="6"/>
        </g>
        <g transform="translate(480,192) scale(4.12)">
            <rect width="6" height="6"/>
        </g>
        <g transform="translate(528,192) scale(4.12)">
            <rect width="6" height="6"/>
        </g>
        <g transform="translate(576,192) scale(4.12)">
            <rect width="6" height="6"/>
        </g>
        <g transform="translate(624,192) scale(4.12)">
            <rect width="6" height="6"/>
        </g>
        <g transform="translate(264,216) scale(4.12)">
            <rect width="6" height="6"/>
        </g>
        <g transform="translate(336,216) scale(4.12)">
            <rect width="6" height="6"/>
        </g>
        <g transform="translate(360,216) scale(4.12)">
            <rect width="6" height="6"/>
        </g>
        <g transform="translate(384,216) scale(4.12)">
            <rect width="6" height="6"/>
        </g>
        <g transform="translate(552,216) scale(4.12)">
            <rect width="6" height="6"/>
        </g>
        <g transform="translate(624,216) scale(4.12)">
            <rect width="6" height="6"/>
        </g>
        <g transform="translate(72,240) scale(4.12)">
            <rect width="6" height="6"/>
        </g>
        <g transform="translate(96,240) scale(4.12)">
            <rect width="6" height="6"/>
        </g>
        <g transform="translate(120,240) scale(4.12)">
            <rect width="6" height="6"/>
        </g>
        <g transform="translate(144,240) scale(4.12)">
            <rect width="6" height="6"/>
        </g>
        <g transform="translate(168,240) scale(4.12)">
            <rect width="6" height="6"/>
        </g>
        <g transform="translate(192,240) scale(4.12)">
            <rect width="6" height="6"/>
        </g>
        <g transform="translate(216,240) scale(4.12)">
            <rect width="6" height="6"/>
        </g>
        <g transform="translate(360,240) scale(4.12)">
            <rect width="6" height="6"/>
        </g>
        <g transform="translate(384,240) scale(4.12)">
            <rect width="6" height="6"/>
        </g>
        <g transform="translate(408,240) scale(4.12)">
            <rect width="6" height="6"/>
        </g>
        <g transform="translate(432,240) scale(4.12)">
            <rect width="6" height="6"/>
        </g>
        <g transform="translate(456,240) scale(4.12)">
            <rect width="6" height="6"/>
        </g>
        <g transform="translate(528,240) scale(4.12)">
            <rect width="6" height="6"/>
        </g>
        <g transform="translate(696,240) scale(4.12)">
            <rect width="6" height="6"/>
        </g>
        <g transform="translate(720,240) scale(4.12)">
            <rect width="6" height="6"/>
        </g>
        <g transform="translate(816,240) scale(4.12)">
            <rect width="6" height="6"/>
        </g>
        <g transform="translate(96,264) scale(4.12)">
            <rect width="6" height="6"/>
        </g>
        <g transform="translate(264,264) scale(4.12)">
            <rect width="6" height="6"/>
        </g>
        <g transform="translate(336,264) scale(4.12)">
            <rect width="6" height="6"/>
        </g>
        <g transform="translate(480,264) scale(4.12)">
            <rect width="6" height="6"/>
        </g>
        <g transform="translate(504,264) scale(4.12)">
            <rect width="6" height="6"/>
        </g>
        <g transform="translate(552,264) scale(4.12)">
            <rect width="6" height="6"/>
        </g>
        <g transform="translate(576,264) scale(4.12)">
            <rect width="6" height="6"/>
        </g>
        <g transform="translate(600,264) scale(4.12)">
            <rect width="6" height="6"/>
        </g>
        <g transform="translate(624,264) scale(4.12)">
            <rect width="6" height="6"/>
        </g>
        <g transform="translate(648,264) scale(4.12)">
            <rect width="6" height="6"/>
        </g>
        <g transform="translate(744,264) scale(4.12)">
            <rect width="6" height="6"/>
        </g>
        <g transform="translate(768,264) scale(4.12)">
            <rect width="6" height="6"/>
        </g>
        <g transform="translate(792,264) scale(4.12)">
            <rect width="6" height="6"/>
        </g>
        <g transform="translate(816,264) scale(4.12)">
            <rect width="6" height="6"/>
        </g>
        <g transform="translate(168,288) scale(4.12)">
            <rect width="6" height="6"/>
        </g>
        <g transform="translate(192,288) scale(4.12)">
            <rect width="6" height="6"/>
        </g>
        <g transform="translate(312,288) scale(4.12)">
            <rect width="6" height="6"/>
        </g>
        <g transform="translate(432,288) scale(4.12)">
            <rect width="6" height="6"/>
        </g>
        <g transform="translate(480,288) scale(4.12)">
            <rect width="6" height="6"/>
        </g>
        <g transform="translate(552,288) scale(4.12)">
            <rect width="6" height="6"/>
        </g>
        <g transform="translate(624,288) scale(4.12)">
            <rect width="6" height="6"/>
        </g>
        <g transform="translate(720,288) scale(4.12)">
            <rect width="6" height="6"/>
        </g>
        <g transform="translate(744,288) scale(4.12)">
            <rect width="6" height="6"/>
        </g>
        <g transform="translate(768,288) scale(4.12)">
            <rect width="6" height="6"/>
        </g>
        <g transform="translate(792,288) scale(4.12)">
            <rect width="6" height="6"/>
        </g>
        <g transform="translate(72,312) scale(4.12)">
            <rect width="6" height="6"/>
        </g>
        <g transform="translate(96,312) scale(4.12)">
            <rect width="6" height="6"/>
        </g>
        <g transform="translate(120,312) scale(4.12)">
            <rect width="6" height="6"/>
        </g>
        <g transform="translate(216,312) scale(4.12)">
            <rect width="6" height="6"/>
        </g>
        <g transform="translate(240,312) scale(4.12)">
            <rect width="6" height="6"/>
        </g>
        <g transform="translate(264,312) scale(4.12)">
            <rect width="6" height="6"/>
        </g>
        <g transform="translate(288,312) scale(4.12)">
            <rect width="6" height="6"/>
        </g>
        <g transform="translate(312,312) scale(4.12)">
            <rect width="6" height="6"/>
        </g>
        <g transform="translate(336,312) scale(4.12)">
            <rect width="6" height="6"/>
        </g>
        <g transform="translate(360,312) scale(4.12)">
            <rect width="6" height="6"/>
        </g>
        <g transform="translate(384,312) scale(4.12)">
            <rect width="6" height="6"/>
        </g>
        <g transform="translate(552,312) scale(4.12)">
            <rect width="6" height="6"/>
        </g>
        <g transform="translate(576,312) scale(4.12)">
            <rect width="6" height="6"/>
        </g>
        <g transform="translate(600,312) scale(4.12)">
            <rect width="6" height="6"/>
        </g>
        <g transform="translate(696,312) scale(4.12)">
            <rect width="6" height="6"/>
        </g>
        <g transform="translate(744,312) scale(4.12)">
            <rect width="6" height="6"/>
        </g>
        <g transform="translate(768,312) scale(4.12)">
            <rect width="6" height="6"/>
        </g>
        <g transform="translate(792,312) scale(4.12)">
            <rect width="6" height="6"/>
        </g>
        <g transform="translate(48,336) scale(4.12)">
            <rect width="6" height="6"/>
        </g>
        <g transform="translate(72,336) scale(4.12)">
            <rect width="6" height="6"/>
        </g>
        <g transform="translate(144,336) scale(4.12)">
            <rect width="6" height="6"/>
        </g>
        <g transform="translate(168,336) scale(4.12)">
            <rect width="6" height="6"/>
        </g>
        <g transform="translate(192,336) scale(4.12)">
            <rect width="6" height="6"/>
        </g>
        <g transform="translate(216,336) scale(4.12)">
            <rect width="6" height="6"/>
        </g>
        <g transform="translate(240,336) scale(4.12)">
            <rect width="6" height="6"/>
        </g>
        <g transform="translate(264,336) scale(4.12)">
            <rect width="6" height="6"/>
        </g>
        <g transform="translate(336,336) scale(4.12)">
            <rect width="6" height="6"/>
        </g>
        <g transform="translate(360,336) scale(4.12)">
            <rect width="6" height="6"/>
        </g>
        <g transform="translate(480,336) scale(4.12)">
            <rect width="6" height="6"/>
        </g>
        <g transform="translate(552,336) scale(4.12)">
            <rect width="6" height="6"/>
        </g>
        <g transform="translate(600,336) scale(4.12)">
            <rect width="6" height="6"/>
        </g>
        <g transform="translate(624,336) scale(4.12)">
            <rect width="6" height="6"/>
        </g>
        <g transform="translate(648,336) scale(4.12)">
            <rect width="6" height="6"/>
        </g>
        <g transform="translate(696,336) scale(4.12)">
            <rect width="6" height="6"/>
        </g>
        <g transform="translate(792,336) scale(4.12)">
            <rect width="6" height="6"/>
        </g>
        <g transform="translate(48,360) scale(4.12)">
            <rect width="6" height="6"/>
        </g>
        <g transform="translate(96,360) scale(4.12)">
            <rect width="6" height="6"/>
        </g>
        <g transform="translate(120,360) scale(4.12)">
            <rect width="6" height="6"/>
        </g>
        <g transform="translate(264,360) scale(4.12)">
            <rect width="6" height="6"/>
        </g>
        <g transform="translate(288,360) scale(4.12)">
            <rect width="6" height="6"/>
        </g>
        <g transform="translate(384,360) scale(4.12)">
            <rect width="6" height="6"/>
        </g>
        <g transform="translate(528,360) scale(4.12)">
            <rect width="6" height="6"/>
        </g>
        <g transform="translate(576,360) scale(4.12)">
            <rect width="6" height="6"/>
        </g>
        <g transform="translate(696,360) scale(4.12)">
            <rect width="6" height="6"/>
        </g>
        <g transform="translate(720,360) scale(4.12)">
            <rect width="6" height="6"/>
        </g>
        <g transform="translate(744,360) scale(4.12)">
            <rect width="6" height="6"/>
        </g>
        <g transform="translate(768,360) scale(4.12)">
            <rect width="6" height="6"/>
        </g>
        <g transform="translate(816,360) scale(4.12)">
            <rect width="6" height="6"/>
        </g>
        <g transform="translate(48,384) scale(4.12)">
            <rect width="6" height="6"/>
        </g>
        <g transform="translate(72,384) scale(4.12)">
            <rect width="6" height="6"/>
        </g>
        <g transform="translate(96,384) scale(4.12)">
            <rect width="6" height="6"/>
        </g>
        <g transform="translate(192,384) scale(4.12)">
            <rect width="6" height="6"/>
        </g>
        <g transform="translate(264,384) scale(4.12)">
            <rect width="6" height="6"/>
        </g>
        <g transform="translate(312,384) scale(4.12)">
            <rect width="6" height="6"/>
        </g>
        <g transform="translate(360,384) scale(4.12)">
            <rect width="6" height="6"/>
        </g>
        <g transform="translate(384,384) scale(4.12)">
            <rect width="6" height="6"/>
        </g>
        <g transform="translate(432,384) scale(4.12)">
            <rect width="6" height="6"/>
        </g>
        <g transform="translate(504,384) scale(4.12)">
            <rect width="6" height="6"/>
        </g>
        <g transform="translate(600,384) scale(4.12)">
            <rect width="6" height="6"/>
        </g>
        <g transform="translate(624,384) scale(4.12)">
            <rect width="6" height="6"/>
        </g>
        <g transform="translate(696,384) scale(4.12)">
            <rect width="6" height="6"/>
        </g>
        <g transform="translate(768,384) scale(4.12)">
            <rect width="6" height="6"/>
        </g>
        <g transform="translate(48,408) scale(4.12)">
            <rect width="6" height="6"/>
        </g>
        <g transform="translate(72,408) scale(4.12)">
            <rect width="6" height="6"/>
        </g>
        <g transform="translate(120,408) scale(4.12)">
            <rect width="6" height="6"/>
        </g>
        <g transform="translate(168,408) scale(4.12)">
            <rect width="6" height="6"/>
        </g>
        <g transform="translate(240,408) scale(4.12)">
            <rect width="6" height="6"/>
        </g>
        <g transform="translate(312,408) scale(4.12)">
            <rect width="6" height="6"/>
        </g>
        <g transform="translate(504,408) scale(4.12)">
            <rect width="6" height="6"/>
        </g>
        <g transform="translate(528,408) scale(4.12)">
            <rect width="6" height="6"/>
        </g>
        <g transform="translate(552,408) scale(4.12)">
            <rect width="6" height="6"/>
        </g>
        <g transform="translate(600,408) scale(4.12)">
            <rect width="6" height="6"/>
        </g>
        <g transform="translate(672,408) scale(4.12)">
            <rect width="6" height="6"/>
        </g>
        <g transform="translate(696,408) scale(4.12)">
            <rect width="6" height="6"/>
        </g>
        <g transform="translate(720,408) scale(4.12)">
            <rect width="6" height="6"/>
        </g>
        <g transform="translate(768,408) scale(4.12)">
            <rect width="6" height="6"/>
        </g>
        <g transform="translate(792,408) scale(4.12)">
            <rect width="6" height="6"/>
        </g>
        <g transform="translate(816,408) scale(4.12)">
            <rect width="6" height="6"/>
        </g>
        <g transform="translate(72,432) scale(4.12)">
            <rect width="6" height="6"/>
        </g>
        <g transform="translate(96,432) scale(4.12)">
            <rect width="6" height="6"/>
        </g>
        <g transform="translate(120,432) scale(4.12)">
            <rect width="6" height="6"/>
        </g>
        <g transform="translate(192,432) scale(4.12)">
            <rect width="6" height="6"/>
        </g>
        <g transform="translate(240,432) scale(4.12)">
            <rect width="6" height="6"/>
        </g>
        <g transform="translate(288,432) scale(4.12)">
            <rect width="6" height="6"/>
        </g>
        <g transform="translate(312,432) scale(4.12)">
            <rect width="6" height="6"/>
        </g>
        <g transform="translate(360,432) scale(4.12)">
            <rect width="6" height="6"/>
        </g>
        <g transform="translate(384,432) scale(4.12)">
            <rect width="6" height="6"/>
        </g>
        <g transform="translate(456,432) scale(4.12)">
            <rect width="6" height="6"/>
        </g>
        <g transform="translate(480,432) scale(4.12)">
            <rect width="6" height="6"/>
        </g>
        <g transform="translate(504,432) scale(4.12)">
            <rect width="6" height="6"/>
        </g>
        <g transform="translate(528,432) scale(4.12)">
            <rect width="6" height="6"/>
        </g>
        <g transform="translate(552,432) scale(4.12)">
            <rect width="6" height="6"/>
        </g>
        <g transform="translate(576,432) scale(4.12)">
            <rect width="6" height="6"/>
        </g>
        <g transform="translate(600,432) scale(4.12)">
            <rect width="6" height="6"/>
        </g>
        <g transform="translate(624,432) scale(4.12)">
            <rect width="6" height="6"/>
        </g>
        <g transform="translate(648,432) scale(4.12)">
            <rect width="6" height="6"/>
        </g>
        <g transform="translate(720,432) scale(4.12)">
            <rect width="6" height="6"/>
        </g>
        <g transform="translate(744,432) scale(4.12)">
            <rect width="6" height="6"/>
        </g>
        <g transform="translate(768,432) scale(4.12)">
            <rect width="6" height="6"/>
        </g>
        <g transform="translate(816,432) scale(4.12)">
            <rect width="6" height="6"/>
        </g>
        <g transform="translate(72,456) scale(4.12)">
            <rect width="6" height="6"/>
        </g>
        <g transform="translate(96,456) scale(4.12)">
            <rect width="6" height="6"/>
        </g>
        <g transform="translate(168,456) scale(4.12)">
            <rect width="6" height="6"/>
        </g>
        <g transform="translate(216,456) scale(4.12)">
            <rect width="6" height="6"/>
        </g>
        <g transform="translate(240,456) scale(4.12)">
            <rect width="6" height="6"/>
        </g>
        <g transform="translate(264,456) scale(4.12)">
            <rect width="6" height="6"/>
        </g>
        <g transform="translate(312,456) scale(4.12)">
            <rect width="6" height="6"/>
        </g>
        <g transform="translate(336,456) scale(4.12)">
            <rect width="6" height="6"/>
        </g>
        <g transform="translate(360,456) scale(4.12)">
            <rect width="6" height="6"/>
        </g>
        <g transform="translate(384,456) scale(4.12)">
            <rect width="6" height="6"/>
        </g>
        <g transform="translate(456,456) scale(4.12)">
            <rect width="6" height="6"/>
        </g>
        <g transform="translate(528,456) scale(4.12)">
            <rect width="6" height="6"/>
        </g>
        <g transform="translate(576,456) scale(4.12)">
            <rect width="6" height="6"/>
        </g>
        <g transform="translate(624,456) scale(4.12)">
            <rect width="6" height="6"/>
        </g>
        <g transform="translate(648,456) scale(4.12)">
            <rect width="6" height="6"/>
        </g>
        <g transform="translate(672,456) scale(4.12)">
            <rect width="6" height="6"/>
        </g>
        <g transform="translate(696,456) scale(4.12)">
            <rect width="6" height="6"/>
        </g>
        <g transform="translate(816,456) scale(4.12)">
            <rect width="6" height="6"/>
        </g>
        <g transform="translate(192,480) scale(4.12)">
            <rect width="6" height="6"/>
        </g>
        <g transform="translate(216,480) scale(4.12)">
            <rect width="6" height="6"/>
        </g>
        <g transform="translate(288,480) scale(4.12)">
            <rect width="6" height="6"/>
        </g>
        <g transform="translate(336,480) scale(4.12)">
            <rect width="6" height="6"/>
        </g>
        <g transform="translate(360,480) scale(4.12)">
            <rect width="6" height="6"/>
        </g>
        <g transform="translate(408,480) scale(4.12)">
            <rect width="6" height="6"/>
        </g>
        <g transform="translate(456,480) scale(4.12)">
            <rect width="6" height="6"/>
        </g>
        <g transform="translate(528,480) scale(4.12)">
            <rect width="6" height="6"/>
        </g>
        <g transform="translate(576,480) scale(4.12)">
            <rect width="6" height="6"/>
        </g>
        <g transform="translate(624,480) scale(4.12)">
            <rect width="6" height="6"/>
        </g>
        <g transform="translate(648,480) scale(4.12)">
            <rect width="6" height="6"/>
        </g>
        <g transform="translate(696,480) scale(4.12)">
            <rect width="6" height="6"/>
        </g>
        <g transform="translate(720,480) scale(4.12)">
            <rect width="6" height="6"/>
        </g>
        <g transform="translate(744,480) scale(4.12)">
            <rect width="6" height="6"/>
        </g>
        <g transform="translate(792,480) scale(4.12)">
            <rect width="6" height="6"/>
        </g>
        <g transform="translate(72,504) scale(4.12)">
            <rect width="6" height="6"/>
        </g>
        <g transform="translate(168,504) scale(4.12)">
            <rect width="6" height="6"/>
        </g>
        <g transform="translate(216,504) scale(4.12)">
            <rect width="6" height="6"/>
        </g>
        <g transform="translate(336,504) scale(4.12)">
            <rect width="6" height="6"/>
        </g>
        <g transform="translate(360,504) scale(4.12)">
            <rect width="6" height="6"/>
        </g>
        <g transform="translate(432,504) scale(4.12)">
            <rect width="6" height="6"/>
        </g>
        <g transform="translate(504,504) scale(4.12)">
            <rect width="6" height="6"/>
        </g>
        <g transform="translate(648,504) scale(4.12)">
            <rect width="6" height="6"/>
        </g>
        <g transform="translate(672,504) scale(4.12)">
            <rect width="6" height="6"/>
        </g>
        <g transform="translate(696,504) scale(4.12)">
            <rect width="6" height="6"/>
        </g>
        <g transform="translate(744,504) scale(4.12)">
            <rect width="6" height="6"/>
        </g>
        <g transform="translate(816,504) scale(4.12)">
            <rect width="6" height="6"/>
        </g>
        <g transform="translate(48,528) scale(4.12)">
            <rect width="6" height="6"/>
        </g>
        <g transform="translate(72,528) scale(4.12)">
            <rect width="6" height="6"/>
        </g>
        <g transform="translate(96,528) scale(4.12)">
            <rect width="6" height="6"/>
        </g>
        <g transform="translate(168,528) scale(4.12)">
            <rect width="6" height="6"/>
        </g>
        <g transform="translate(192,528) scale(4.12)">
            <rect width="6" height="6"/>
        </g>
        <g transform="translate(384,528) scale(4.12)">
            <rect width="6" height="6"/>
        </g>
        <g transform="translate(456,528) scale(4.12)">
            <rect width="6" height="6"/>
        </g>
        <g transform="translate(480,528) scale(4.12)">
            <rect width="6" height="6"/>
        </g>
        <g transform="translate(504,528) scale(4.12)">
            <rect width="6" height="6"/>
        </g>
        <g transform="translate(528,528) scale(4.12)">
            <rect width="6" height="6"/>
        </g>
        <g transform="translate(552,528) scale(4.12)">
            <rect width="6" height="6"/>
        </g>
        <g transform="translate(576,528) scale(4.12)">
            <rect width="6" height="6"/>
        </g>
        <g transform="translate(624,528) scale(4.12)">
            <rect width="6" height="6"/>
        </g>
        <g transform="translate(648,528) scale(4.12)">
            <rect width="6" height="6"/>
        </g>
        <g transform="translate(696,528) scale(4.12)">
            <rect width="6" height="6"/>
        </g>
        <g transform="translate(744,528) scale(4.12)">
            <rect width="6" height="6"/>
        </g>
        <g transform="translate(792,528) scale(4.12)">
            <rect width="6" height="6"/>
        </g>
        <g transform="translate(816,528) scale(4.12)">
            <rect width="6" height="6"/>
        </g>
        <g transform="translate(48,552) scale(4.12)">
            <rect width="6" height="6"/>
        </g>
        <g transform="translate(72,552) scale(4.12)">
            <rect width="6" height="6"/>
        </g>
        <g transform="translate(240,552) scale(4.12)">
            <rect width="6" height="6"/>
        </g>
        <g transform="translate(264,552) scale(4.12)">
            <rect width="6" height="6"/>
        </g>
        <g transform="translate(480,552) scale(4.12)">
            <rect width="6" height="6"/>
        </g>
        <g transform="translate(552,552) scale(4.12)">
            <rect width="6" height="6"/>
        </g>
        <g transform="translate(624,552) scale(4.12)">
            <rect width="6" height="6"/>
        </g>
        <g transform="translate(672,552) scale(4.12)">
            <rect width="6" height="6"/>
        </g>
        <g transform="translate(696,552) scale(4.12)">
            <rect width="6" height="6"/>
        </g>
        <g transform="translate(768,552) scale(4.12)">
            <rect width="6" height="6"/>
        </g>
        <g transform="translate(792,552) scale(4.12)">
            <rect width="6" height="6"/>
        </g>
        <g transform="translate(48,576) scale(4.12)">
            <rect width="6" height="6"/>
        </g>
        <g transform="translate(96,576) scale(4.12)">
            <rect width="6" height="6"/>
        </g>
        <g transform="translate(120,576) scale(4.12)">
            <rect width="6" height="6"/>
        </g>
        <g transform="translate(144,576) scale(4.12)">
            <rect width="6" height="6"/>
        </g>
        <g transform="translate(168,576) scale(4.12)">
            <rect width="6" height="6"/>
        </g>
        <g transform="translate(192,576) scale(4.12)">
            <rect width="6" height="6"/>
        </g>
        <g transform="translate(264,576) scale(4.12)">
            <rect width="6" height="6"/>
        </g>
        <g transform="translate(288,576) scale(4.12)">
            <rect width="6" height="6"/>
        </g>
        <g transform="translate(408,576) scale(4.12)">
            <rect width="6" height="6"/>
        </g>
        <g transform="translate(432,576) scale(4.12)">
            <rect width="6" height="6"/>
        </g>
        <g transform="translate(456,576) scale(4.12)">
            <rect width="6" height="6"/>
        </g>
        <g transform="translate(528,576) scale(4.12)">
            <rect width="6" height="6"/>
        </g>
        <g transform="translate(576,576) scale(4.12)">
            <rect width="6" height="6"/>
        </g>
        <g transform="translate(624,576) scale(4.12)">
            <rect width="6" height="6"/>
        </g>
        <g transform="translate(648,576) scale(4.12)">
            <rect width="6" height="6"/>
        </g>
        <g transform="translate(672,576) scale(4.12)">
            <rect width="6" height="6"/>
        </g>
        <g transform="translate(696,576) scale(4.12)">
            <rect width="6" height="6"/>
        </g>
        <g transform="translate(768,576) scale(4.12)">
            <rect width="6" height="6"/>
        </g>
        <g transform="translate(792,576) scale(4.12)">
            <rect width="6" height="6"/>
        </g>
        <g transform="translate(816,576) scale(4.12)">
            <rect width="6" height="6"/>
        </g>
        <g transform="translate(48,600) scale(4.12)">
            <rect width="6" height="6"/>
        </g>
        <g transform="translate(168,600) scale(4.12)">
            <rect width="6" height="6"/>
        </g>
        <g transform="translate(216,600) scale(4.12)">
            <rect width="6" height="6"/>
        </g>
        <g transform="translate(240,600) scale(4.12)">
            <rect width="6" height="6"/>
        </g>
        <g transform="translate(264,600) scale(4.12)">
            <rect width="6" height="6"/>
        </g>
        <g transform="translate(312,600) scale(4.12)">
            <rect width="6" height="6"/>
        </g>
        <g transform="translate(336,600) scale(4.12)">
            <rect width="6" height="6"/>
        </g>
        <g transform="translate(456,600) scale(4.12)">
            <rect width="6" height="6"/>
        </g>
        <g transform="translate(480,600) scale(4.12)">
            <rect width="6" height="6"/>
        </g>
        <g transform="translate(552,600) scale(4.12)">
            <rect width="6" height="6"/>
        </g>
        <g transform="translate(576,600) scale(4.12)">
            <rect width="6" height="6"/>
        </g>
        <g transform="translate(624,600) scale(4.12)">
            <rect width="6" height="6"/>
        </g>
        <g transform="translate(696,600) scale(4.12)">
            <rect width="6" height="6"/>
        </g>
        <g transform="translate(720,600) scale(4.12)">
            <rect width="6" height="6"/>
        </g>
        <g transform="translate(768,600) scale(4.12)">
            <rect width="6" height="6"/>
        </g>
        <g transform="translate(792,600) scale(4.12)">
            <rect width="6" height="6"/>
        </g>
        <g transform="translate(816,600) scale(4.12)">
            <rect width="6" height="6"/>
        </g>
        <g transform="translate(48,624) scale(4.12)">
            <rect width="6" height="6"/>
        </g>
        <g transform="translate(168,624) scale(4.12)">
            <rect width="6" height="6"/>
        </g>
        <g transform="translate(192,624) scale(4.12)">
            <rect width="6" height="6"/>
        </g>
        <g transform="translate(240,624) scale(4.12)">
            <rect width="6" height="6"/>
        </g>
        <g transform="translate(264,624) scale(4.12)">
            <rect width="6" height="6"/>
        </g>
        <g transform="translate(336,624) scale(4.12)">
            <rect width="6" height="6"/>
        </g>
        <g transform="translate(408,624) scale(4.12)">
            <rect width="6" height="6"/>
        </g>
        <g transform="translate(528,624) scale(4.12)">
            <rect width="6" height="6"/>
        </g>
        <g transform="translate(552,624) scale(4.12)">
            <rect width="6" height="6"/>
        </g>
        <g transform="translate(576,624) scale(4.12)">
            <rect width="6" height="6"/>
        </g>
        <g transform="translate(624,624) scale(4.12)">
            <rect width="6" height="6"/>
        </g>
        <g transform="translate(648,624) scale(4.12)">
            <rect width="6" height="6"/>
        </g>
        <g transform="translate(672,624) scale(4.12)">
            <rect width="6" height="6"/>
        </g>
        <g transform="translate(696,624) scale(4.12)">
            <rect width="6" height="6"/>
        </g>
        <g transform="translate(720,624) scale(4.12)">
            <rect width="6" height="6"/>
        </g>
        <g transform="translate(744,624) scale(4.12)">
            <rect width="6" height="6"/>
        </g>
        <g transform="translate(768,624) scale(4.12)">
            <rect width="6" height="6"/>
        </g>
        <g transform="translate(792,624) scale(4.12)">
            <rect width="6" height="6"/>
        </g>
        <g transform="translate(240,648) scale(4.12)">
            <rect width="6" height="6"/>
        </g>
        <g transform="translate(264,648) scale(4.12)">
            <rect width="6" height="6"/>
        </g>
        <g transform="translate(408,648) scale(4.12)">
            <rect width="6" height="6"/>
        </g>
        <g transform="translate(432,648) scale(4.12)">
            <rect width="6" height="6"/>
        </g>
        <g transform="translate(456,648) scale(4.12)">
            <rect width="6" height="6"/>
        </g>
        <g transform="translate(504,648) scale(4.12)">
            <rect width="6" height="6"/>
        </g>
        <g transform="translate(552,648) scale(4.12)">
            <rect width="6" height="6"/>
        </g>
        <g transform="translate(576,648) scale(4.12)">
            <rect width="6" height="6"/>
        </g>
        <g transform="translate(624,648) scale(4.12)">
            <rect width="6" height="6"/>
        </g>
        <g transform="translate(720,648) scale(4.12)">
            <rect width="6" height="6"/>
        </g>
        <g transform="translate(744,648) scale(4.12)">
            <rect width="6" height="6"/>
        </g>
        <g transform="translate(768,648) scale(4.12)">
            <rect width="6" height="6"/>
        </g>
        <g transform="translate(816,648) scale(4.12)">
            <rect width="6" height="6"/>
        </g>
        <g transform="translate(240,672) scale(4.12)">
            <rect width="6" height="6"/>
        </g>
        <g transform="translate(264,672) scale(4.12)">
            <rect width="6" height="6"/>
        </g>
        <g transform="translate(312,672) scale(4.12)">
            <rect width="6" height="6"/>
        </g>
        <g transform="translate(336,672) scale(4.12)">
            <rect width="6" height="6"/>
        </g>
        <g transform="translate(408,672) scale(4.12)">
            <rect width="6" height="6"/>
        </g>
        <g transform="translate(456,672) scale(4.12)">
            <rect width="6" height="6"/>
        </g>
        <g transform="translate(480,672) scale(4.12)">
            <rect width="6" height="6"/>
        </g>
        <g transform="translate(528,672) scale(4.12)">
            <rect width="6" height="6"/>
        </g>
        <g transform="translate(552,672) scale(4.12)">
            <rect width="6" height="6"/>
        </g>
        <g transform="translate(624,672) scale(4.12)">
            <rect width="6" height="6"/>
        </g>
        <g transform="translate(672,672) scale(4.12)">
            <rect width="6" height="6"/>
        </g>
        <g transform="translate(720,672) scale(4.12)">
            <rect width="6" height="6"/>
        </g>
        <g transform="translate(792,672) scale(4.12)">
            <rect width="6" height="6"/>
        </g>
        <g transform="translate(240,696) scale(4.12)">
            <rect width="6" height="6"/>
        </g>
        <g transform="translate(288,696) scale(4.12)">
            <rect width="6" height="6"/>
        </g>
        <g transform="translate(312,696) scale(4.12)">
            <rect width="6" height="6"/>
        </g>
        <g transform="translate(336,696) scale(4.12)">
            <rect width="6" height="6"/>
        </g>
        <g transform="translate(360,696) scale(4.12)">
            <rect width="6" height="6"/>
        </g>
        <g transform="translate(408,696) scale(4.12)">
            <rect width="6" height="6"/>
        </g>
        <g transform="translate(432,696) scale(4.12)">
            <rect width="6" height="6"/>
        </g>
        <g transform="translate(552,696) scale(4.12)">
            <rect width="6" height="6"/>
        </g>
        <g transform="translate(576,696) scale(4.12)">
            <rect width="6" height="6"/>
        </g>
        <g transform="translate(624,696) scale(4.12)">
            <rect width="6" height="6"/>
        </g>
        <g transform="translate(720,696) scale(4.12)">
            <rect width="6" height="6"/>
        </g>
        <g transform="translate(768,696) scale(4.12)">
            <rect width="6" height="6"/>
        </g>
        <g transform="translate(792,696) scale(4.12)">
            <rect width="6" height="6"/>
        </g>
        <g transform="translate(816,696) scale(4.12)">
            <rect width="6" height="6"/>
        </g>
        <g transform="translate(240,720) scale(4.12)">
            <rect width="6" height="6"/>
        </g>
        <g transform="translate(288,720) scale(4.12)">
            <rect width="6" height="6"/>
        </g>
        <g transform="translate(336,720) scale(4.12)">
            <rect width="6" height="6"/>
        </g>
        <g transform="translate(432,720) scale(4.12)">
            <rect width="6" height="6"/>
        </g>
        <g transform="translate(552,720) scale(4.12)">
            <rect width="6" height="6"/>
        </g>
        <g transform="translate(624,720) scale(4.12)">
            <rect width="6" height="6"/>
        </g>
        <g transform="translate(648,720) scale(4.12)">
            <rect width="6" height="6"/>
        </g>
        <g transform="translate(672,720) scale(4.12)">
            <rect width="6" height="6"/>
        </g>
        <g transform="translate(696,720) scale(4.12)">
            <rect width="6" height="6"/>
        </g>
        <g transform="translate(720,720) scale(4.12)">
            <rect width="6" height="6"/>
        </g>
        <g transform="translate(744,720) scale(4.12)">
            <rect width="6" height="6"/>
        </g>
        <g transform="translate(240,744) scale(4.12)">
            <rect width="6" height="6"/>
        </g>
        <g transform="translate(264,744) scale(4.12)">
            <rect width="6" height="6"/>
        </g>
        <g transform="translate(288,744) scale(4.12)">
            <rect width="6" height="6"/>
        </g>
        <g transform="translate(384,744) scale(4.12)">
            <rect width="6" height="6"/>
        </g>
        <g transform="translate(432,744) scale(4.12)">
            <rect width="6" height="6"/>
        </g>
        <g transform="translate(528,744) scale(4.12)">
            <rect width="6" height="6"/>
        </g>
        <g transform="translate(552,744) scale(4.12)">
            <rect width="6" height="6"/>
        </g>
        <g transform="translate(576,744) scale(4.12)">
            <rect width="6" height="6"/>
        </g>
        <g transform="translate(600,744) scale(4.12)">
            <rect width="6" height="6"/>
        </g>
        <g transform="translate(624,744) scale(4.12)">
            <rect width="6" height="6"/>
        </g>
        <g transform="translate(648,744) scale(4.12)">
            <rect width="6" height="6"/>
        </g>
        <g transform="translate(672,744) scale(4.12)">
            <rect width="6" height="6"/>
        </g>
        <g transform="translate(744,744) scale(4.12)">
            <rect width="6" height="6"/>
        </g>
        <g transform="translate(768,744) scale(4.12)">
            <rect width="6" height="6"/>
        </g>
        <g transform="translate(240,768) scale(4.12)">
            <rect width="6" height="6"/>
        </g>
        <g transform="translate(312,768) scale(4.12)">
            <rect width="6" height="6"/>
        </g>
        <g transform="translate(360,768) scale(4.12)">
            <rect width="6" height="6"/>
        </g>
        <g transform="translate(384,768) scale(4.12)">
            <rect width="6" height="6"/>
        </g>
        <g transform="translate(408,768) scale(4.12)">
            <rect width="6" height="6"/>
        </g>
        <g transform="translate(432,768) scale(4.12)">
            <rect width="6" height="6"/>
        </g>
        <g transform="translate(480,768) scale(4.12)">
            <rect width="6" height="6"/>
        </g>
        <g transform="translate(504,768) scale(4.12)">
            <rect width="6" height="6"/>
        </g>
        <g transform="translate(552,768) scale(4.12)">
            <rect width="6" height="6"/>
        </g>
        <g transform="translate(672,768) scale(4.12)">
            <rect width="6" height="6"/>
        </g>
        <g transform="translate(696,768) scale(4.12)">
            <rect width="6" height="6"/>
        </g>
        <g transform="translate(720,768) scale(4.12)">
            <rect width="6" height="6"/>
        </g>
        <g transform="translate(744,768) scale(4.12)">
            <rect width="6" height="6"/>
        </g>
        <g transform="translate(768,768) scale(4.12)">
            <rect width="6" height="6"/>
        </g>
        <g transform="translate(240,792) scale(4.12)">
            <rect width="6" height="6"/>
        </g>
        <g transform="translate(288,792) scale(4.12)">
            <rect width="6" height="6"/>
        </g>
        <g transform="translate(408,792) scale(4.12)">
            <rect width="6" height="6"/>
        </g>
        <g transform="translate(504,792) scale(4.12)">
            <rect width="6" height="6"/>
        </g>
        <g transform="translate(528,792) scale(4.12)">
            <rect width="6" height="6"/>
        </g>
        <g transform="translate(552,792) scale(4.12)">
            <rect width="6" height="6"/>
        </g>
        <g transform="translate(648,792) scale(4.12)">
            <rect width="6" height="6"/>
        </g>
        <g transform="translate(696,792) scale(4.12)">
            <rect width="6" height="6"/>
        </g>
        <g transform="translate(720,792) scale(4.12)">
            <rect width="6" height="6"/>
        </g>
        <g transform="translate(744,792) scale(4.12)">
            <rect width="6" height="6"/>
        </g>
        <g transform="translate(768,792) scale(4.12)">
            <rect width="6" height="6"/>
        </g>
        <g transform="translate(816,792) scale(4.12)">
            <rect width="6" height="6"/>
        </g>
        <g transform="translate(288,816) scale(4.12)">
            <rect width="6" height="6"/>
        </g>
        <g transform="translate(336,816) scale(4.12)">
            <rect width="6" height="6"/>
        </g>
        <g transform="translate(360,816) scale(4.12)">
            <rect width="6" height="6"/>
        </g>
        <g transform="translate(408,816) scale(4.12)">
            <rect width="6" height="6"/>
        </g>
        <g transform="translate(456,816) scale(4.12)">
            <rect width="6" height="6"/>
        </g>
        <g transform="translate(480,816) scale(4.12)">
            <rect width="6" height="6"/>
        </g>
        <g transform="translate(504,816) scale(4.12)">
            <rect width="6" height="6"/>
        </g>
        <g transform="translate(552,816) scale(4.12)">
            <rect width="6" height="6"/>
        </g>
        <g transform="translate(576,816) scale(4.12)">
            <rect width="6" height="6"/>
        </g>
        <g transform="translate(600,816) scale(4.12)">
            <rect width="6" height="6"/>
        </g>
        <g transform="translate(624,816) scale(4.12)">
            <rect width="6" height="6"/>
        </g>
        <g transform="translate(648,816) scale(4.12)">
            <rect width="6" height="6"/>
        </g>
        <g transform="translate(672,816) scale(4.12)">
            <rect width="6" height="6"/>
        </g>
        <g transform="translate(720,816) scale(4.12)">
            <rect width="6" height="6"/>
        </g>
        <g transform="translate(744,816) scale(4.12)">
            <rect width="6" height="6"/>
        </g>
        <g transform="translate(48,48)">
            <g transform="scale(12)">
                <path d="M0,0v14h14V0H0z M12,12H2V2h10V12z"/>
            </g>
        </g>
        <g transform="translate(672,48)">
            <g transform="scale(12)">
                <path d="M0,0v14h14V0H0z M12,12H2V2h10V12z"/>
            </g>
        </g>
        <g transform="translate(48,672)">
            <g transform="scale(12)">
                <path d="M0,0v14h14V0H0z M12,12H2V2h10V12z"/>
            </g>
        </g>
        <g transform="translate(96,96)">
            <g transform="scale(12)">
                <rect width="6" height="6"/>
            </g>
        </g>
        <g transform="translate(720,96)">
            <g transform="scale(12)">
                <rect width="6" height="6"/>
            </g>
        </g>
        <g transform="translate(96,720)">
            <g transform="scale(12)">
                <rect width="6" height="6"/>
            </g>
        </g>
    </g>
</svg>