<?xml version="1.0" encoding="utf-8"?>
<svg xmlns="http://www.w3.org/2000/svg" xmlns:xlink="http://www.w3.org/1999/xlink" xml:space="preserve" width="870" height="1015" viewBox="0 0 870 1015"><rect width="805.475" height="805.475" fill="#89c68b" x="36.25" y="181.25"/><g transform="scale(36.25)" fill="#224a23"><path d="M1.3,28L22.6,28c0.7,0,1.3-0.6,1.3-1.3L24,1.4c0-0.7-0.6-1.3-1.3-1.3L1.4,0C0.7,0,0.1,0.6,0,1.3L0,26.6 C-0.1,27.4,0.5,28,1.3,28z M1,6c0-0.6,0.5-1,1-1L22,5c0.6,0,1,0.5,1,1L23,26c0,0.6-0.5,1-1,1L2,27c-0.6,0-1-0.5-1-1L1,6z"/></g><g transform="translate(0,145)" fill="#224a23">
<g transform="translate(279,87) scale(4.12)"><rect width="6" height="6"/></g>
<g transform="translate(303,87) scale(4.12)"><rect width="6" height="6"/></g>
<g transform="translate(351,87) scale(4.12)"><rect width="6" height="6"/></g>
<g transform="translate(519,87) scale(4.12)"><rect width="6" height="6"/></g>
<g transform="translate(303,111) scale(4.12)"><rect width="6" height="6"/></g>
<g transform="translate(327,111) scale(4.12)"><rect width="6" height="6"/></g>
<g transform="translate(399,111) scale(4.12)"><rect width="6" height="6"/></g>
<g transform="translate(447,111) scale(4.12)"><rect width="6" height="6"/></g>
<g transform="translate(495,111) scale(4.12)"><rect width="6" height="6"/></g>
<g transform="translate(567,111) scale(4.12)"><rect width="6" height="6"/></g>
<g transform="translate(303,135) scale(4.12)"><rect width="6" height="6"/></g>
<g transform="translate(399,135) scale(4.12)"><rect width="6" height="6"/></g>
<g transform="translate(495,135) scale(4.12)"><rect width="6" height="6"/></g>
<g transform="translate(519,135) scale(4.12)"><rect width="6" height="6"/></g>
<g transform="translate(567,135) scale(4.12)"><rect width="6" height="6"/></g>
<g transform="translate(303,159) scale(4.12)"><rect width="6" height="6"/></g>
<g transform="translate(327,159) scale(4.12)"><rect width="6" height="6"/></g>
<g transform="translate(375,159) scale(4.12)"><rect width="6" height="6"/></g>
<g transform="translate(447,159) scale(4.12)"><rect width="6" height="6"/></g>
<g transform="translate(471,159) scale(4.12)"><rect width="6" height="6"/></g>
<g transform="translate(495,159) scale(4.12)"><rect width="6" height="6"/></g>
<g transform="translate(519,159) scale(4.12)"><rect width="6" height="6"/></g>
<g transform="translate(543,159) scale(4.12)"><rect width="6" height="6"/></g>
<g transform="translate(567,159) scale(4.12)"><rect width="6" height="6"/></g>
<g transform="translate(279,183) scale(4.12)"><rect width="6" height="6"/></g>
<g transform="translate(327,183) scale(4.12)"><rect width="6" height="6"/></g>
<g transform="translate(447,183) scale(4.12)"><rect width="6" height="6"/></g>
<g transform="translate(471,183) scale(4.12)"><rect width="6" height="6"/></g>
<g transform="translate(519,183) scale(4.12)"><rect width="6" height="6"/></g>
<g transform="translate(543,183) scale(4.12)"><rect width="6" height="6"/></g>
<g transform="translate(567,183) scale(4.12)"><rect width="6" height="6"/></g>
<g transform="translate(279,207) scale(4.12)"><rect width="6" height="6"/></g>
<g transform="translate(351,207) scale(4.12)"><rect width="6" height="6"/></g>
<g transform="translate(375,207) scale(4.12)"><rect width="6" height="6"/></g>
<g transform="translate(423,207) scale(4.12)"><rect width="6" height="6"/></g>
<g transform="translate(447,207) scale(4.12)"><rect width="6" height="6"/></g>
<g transform="translate(471,207) scale(4.12)"><rect width="6" height="6"/></g>
<g transform="translate(519,207) scale(4.12)"><rect width="6" height="6"/></g>
<g transform="translate(279,231) scale(4.12)"><rect width="6" height="6"/></g>
<g transform="translate(327,231) scale(4.12)"><rect width="6" height="6"/></g>
<g transform="translate(375,231) scale(4.12)"><rect width="6" height="6"/></g>
<g transform="translate(423,231) scale(4.12)"><rect width="6" height="6"/></g>
<g transform="translate(471,231) scale(4.12)"><rect width="6" height="6"/></g>
<g transform="translate(519,231) scale(4.12)"><rect width="6" height="6"/></g>
<g transform="translate(567,231) scale(4.12)"><rect width="6" height="6"/></g>
<g transform="translate(399,255) scale(4.12)"><rect width="6" height="6"/></g>
<g transform="translate(495,255) scale(4.12)"><rect width="6" height="6"/></g>
<g transform="translate(519,255) scale(4.12)"><rect width="6" height="6"/></g>
<g transform="translate(543,255) scale(4.12)"><rect width="6" height="6"/></g>
<g transform="translate(567,255) scale(4.12)"><rect width="6" height="6"/></g>
<g transform="translate(111,279) scale(4.12)"><rect width="6" height="6"/></g>
<g transform="translate(135,279) scale(4.12)"><rect width="6" height="6"/></g>
<g transform="translate(159,279) scale(4.12)"><rect width="6" height="6"/></g>
<g transform="translate(183,279) scale(4.12)"><rect width="6" height="6"/></g>
<g transform="translate(207,279) scale(4.12)"><rect width="6" height="6"/></g>
<g transform="translate(231,279) scale(4.12)"><rect width="6" height="6"/></g>
<g transform="translate(255,279) scale(4.12)"><rect width="6" height="6"/></g>
<g transform="translate(303,279) scale(4.12)"><rect width="6" height="6"/></g>
<g transform="translate(399,279) scale(4.12)"><rect width="6" height="6"/></g>
<g transform="translate(423,279) scale(4.12)"><rect width="6" height="6"/></g>
<g transform="translate(447,279) scale(4.12)"><rect width="6" height="6"/></g>
<g transform="translate(471,279) scale(4.12)"><rect width="6" height="6"/></g>
<g transform="translate(519,279) scale(4.12)"><rect width="6" height="6"/></g>
<g transform="translate(543,279) scale(4.12)"><rect width="6" height="6"/></g>
<g transform="translate(639,279) scale(4.12)"><rect width="6" height="6"/></g>
<g transform="translate(663,279) scale(4.12)"><rect width="6" height="6"/></g>
<g transform="translate(759,279) scale(4.12)"><rect width="6" height="6"/></g>
<g transform="translate(159,303) scale(4.12)"><rect width="6" height="6"/></g>
<g transform="translate(207,303) scale(4.12)"><rect width="6" height="6"/></g>
<g transform="translate(279,303) scale(4.12)"><rect width="6" height="6"/></g>
<g transform="translate(327,303) scale(4.12)"><rect width="6" height="6"/></g>
<g transform="translate(375,303) scale(4.12)"><rect width="6" height="6"/></g>
<g transform="translate(447,303) scale(4.12)"><rect width="6" height="6"/></g>
<g transform="translate(471,303) scale(4.12)"><rect width="6" height="6"/></g>
<g transform="translate(495,303) scale(4.12)"><rect width="6" height="6"/></g>
<g transform="translate(519,303) scale(4.12)"><rect width="6" height="6"/></g>
<g transform="translate(567,303) scale(4.12)"><rect width="6" height="6"/></g>
<g transform="translate(591,303) scale(4.12)"><rect width="6" height="6"/></g>
<g transform="translate(639,303) scale(4.12)"><rect width="6" height="6"/></g>
<g transform="translate(735,303) scale(4.12)"><rect width="6" height="6"/></g>
<g transform="translate(759,303) scale(4.12)"><rect width="6" height="6"/></g>
<g transform="translate(135,327) scale(4.12)"><rect width="6" height="6"/></g>
<g transform="translate(183,327) scale(4.12)"><rect width="6" height="6"/></g>
<g transform="translate(231,327) scale(4.12)"><rect width="6" height="6"/></g>
<g transform="translate(303,327) scale(4.12)"><rect width="6" height="6"/></g>
<g transform="translate(351,327) scale(4.12)"><rect width="6" height="6"/></g>
<g transform="translate(519,327) scale(4.12)"><rect width="6" height="6"/></g>
<g transform="translate(591,327) scale(4.12)"><rect width="6" height="6"/></g>
<g transform="translate(663,327) scale(4.12)"><rect width="6" height="6"/></g>
<g transform="translate(735,327) scale(4.12)"><rect width="6" height="6"/></g>
<g transform="translate(87,351) scale(4.12)"><rect width="6" height="6"/></g>
<g transform="translate(111,351) scale(4.12)"><rect width="6" height="6"/></g>
<g transform="translate(135,351) scale(4.12)"><rect width="6" height="6"/></g>
<g transform="translate(327,351) scale(4.12)"><rect width="6" height="6"/></g>
<g transform="translate(351,351) scale(4.12)"><rect width="6" height="6"/></g>
<g transform="translate(375,351) scale(4.12)"><rect width="6" height="6"/></g>
<g transform="translate(447,351) scale(4.12)"><rect width="6" height="6"/></g>
<g transform="translate(471,351) scale(4.12)"><rect width="6" height="6"/></g>
<g transform="translate(519,351) scale(4.12)"><rect width="6" height="6"/></g>
<g transform="translate(543,351) scale(4.12)"><rect width="6" height="6"/></g>
<g transform="translate(591,351) scale(4.12)"><rect width="6" height="6"/></g>
<g transform="translate(615,351) scale(4.12)"><rect width="6" height="6"/></g>
<g transform="translate(663,351) scale(4.12)"><rect width="6" height="6"/></g>
<g transform="translate(687,351) scale(4.12)"><rect width="6" height="6"/></g>
<g transform="translate(711,351) scale(4.12)"><rect width="6" height="6"/></g>
<g transform="translate(759,351) scale(4.12)"><rect width="6" height="6"/></g>
<g transform="translate(183,375) scale(4.12)"><rect width="6" height="6"/></g>
<g transform="translate(231,375) scale(4.12)"><rect width="6" height="6"/></g>
<g transform="translate(279,375) scale(4.12)"><rect width="6" height="6"/></g>
<g transform="translate(327,375) scale(4.12)"><rect width="6" height="6"/></g>
<g transform="translate(399,375) scale(4.12)"><rect width="6" height="6"/></g>
<g transform="translate(447,375) scale(4.12)"><rect width="6" height="6"/></g>
<g transform="translate(471,375) scale(4.12)"><rect width="6" height="6"/></g>
<g transform="translate(495,375) scale(4.12)"><rect width="6" height="6"/></g>
<g transform="translate(543,375) scale(4.12)"><rect width="6" height="6"/></g>
<g transform="translate(591,375) scale(4.12)"><rect width="6" height="6"/></g>
<g transform="translate(639,375) scale(4.12)"><rect width="6" height="6"/></g>
<g transform="translate(663,375) scale(4.12)"><rect width="6" height="6"/></g>
<g transform="translate(735,375) scale(4.12)"><rect width="6" height="6"/></g>
<g transform="translate(759,375) scale(4.12)"><rect width="6" height="6"/></g>
<g transform="translate(183,399) scale(4.12)"><rect width="6" height="6"/></g>
<g transform="translate(207,399) scale(4.12)"><rect width="6" height="6"/></g>
<g transform="translate(255,399) scale(4.12)"><rect width="6" height="6"/></g>
<g transform="translate(399,399) scale(4.12)"><rect width="6" height="6"/></g>
<g transform="translate(423,399) scale(4.12)"><rect width="6" height="6"/></g>
<g transform="translate(447,399) scale(4.12)"><rect width="6" height="6"/></g>
<g transform="translate(495,399) scale(4.12)"><rect width="6" height="6"/></g>
<g transform="translate(615,399) scale(4.12)"><rect width="6" height="6"/></g>
<g transform="translate(687,399) scale(4.12)"><rect width="6" height="6"/></g>
<g transform="translate(735,399) scale(4.12)"><rect width="6" height="6"/></g>
<g transform="translate(87,423) scale(4.12)"><rect width="6" height="6"/></g>
<g transform="translate(159,423) scale(4.12)"><rect width="6" height="6"/></g>
<g transform="translate(207,423) scale(4.12)"><rect width="6" height="6"/></g>
<g transform="translate(231,423) scale(4.12)"><rect width="6" height="6"/></g>
<g transform="translate(255,423) scale(4.12)"><rect width="6" height="6"/></g>
<g transform="translate(351,423) scale(4.12)"><rect width="6" height="6"/></g>
<g transform="translate(375,423) scale(4.12)"><rect width="6" height="6"/></g>
<g transform="translate(423,423) scale(4.12)"><rect width="6" height="6"/></g>
<g transform="translate(471,423) scale(4.12)"><rect width="6" height="6"/></g>
<g transform="translate(495,423) scale(4.12)"><rect width="6" height="6"/></g>
<g transform="translate(615,423) scale(4.12)"><rect width="6" height="6"/></g>
<g transform="translate(687,423) scale(4.12)"><rect width="6" height="6"/></g>
<g transform="translate(87,447) scale(4.12)"><rect width="6" height="6"/></g>
<g transform="translate(135,447) scale(4.12)"><rect width="6" height="6"/></g>
<g transform="translate(159,447) scale(4.12)"><rect width="6" height="6"/></g>
<g transform="translate(183,447) scale(4.12)"><rect width="6" height="6"/></g>
<g transform="translate(255,447) scale(4.12)"><rect width="6" height="6"/></g>
<g transform="translate(375,447) scale(4.12)"><rect width="6" height="6"/></g>
<g transform="translate(399,447) scale(4.12)"><rect width="6" height="6"/></g>
<g transform="translate(423,447) scale(4.12)"><rect width="6" height="6"/></g>
<g transform="translate(495,447) scale(4.12)"><rect width="6" height="6"/></g>
<g transform="translate(519,447) scale(4.12)"><rect width="6" height="6"/></g>
<g transform="translate(639,447) scale(4.12)"><rect width="6" height="6"/></g>
<g transform="translate(687,447) scale(4.12)"><rect width="6" height="6"/></g>
<g transform="translate(735,447) scale(4.12)"><rect width="6" height="6"/></g>
<g transform="translate(759,447) scale(4.12)"><rect width="6" height="6"/></g>
<g transform="translate(159,471) scale(4.12)"><rect width="6" height="6"/></g>
<g transform="translate(231,471) scale(4.12)"><rect width="6" height="6"/></g>
<g transform="translate(255,471) scale(4.12)"><rect width="6" height="6"/></g>
<g transform="translate(279,471) scale(4.12)"><rect width="6" height="6"/></g>
<g transform="translate(327,471) scale(4.12)"><rect width="6" height="6"/></g>
<g transform="translate(351,471) scale(4.12)"><rect width="6" height="6"/></g>
<g transform="translate(375,471) scale(4.12)"><rect width="6" height="6"/></g>
<g transform="translate(399,471) scale(4.12)"><rect width="6" height="6"/></g>
<g transform="translate(543,471) scale(4.12)"><rect width="6" height="6"/></g>
<g transform="translate(591,471) scale(4.12)"><rect width="6" height="6"/></g>
<g transform="translate(711,471) scale(4.12)"><rect width="6" height="6"/></g>
<g transform="translate(87,495) scale(4.12)"><rect width="6" height="6"/></g>
<g transform="translate(135,495) scale(4.12)"><rect width="6" height="6"/></g>
<g transform="translate(207,495) scale(4.12)"><rect width="6" height="6"/></g>
<g transform="translate(255,495) scale(4.12)"><rect width="6" height="6"/></g>
<g transform="translate(303,495) scale(4.12)"><rect width="6" height="6"/></g>
<g transform="translate(375,495) scale(4.12)"><rect width="6" height="6"/></g>
<g transform="translate(399,495) scale(4.12)"><rect width="6" height="6"/></g>
<g transform="translate(447,495) scale(4.12)"><rect width="6" height="6"/></g>
<g transform="translate(471,495) scale(4.12)"><rect width="6" height="6"/></g>
<g transform="translate(519,495) scale(4.12)"><rect width="6" height="6"/></g>
<g transform="translate(543,495) scale(4.12)"><rect width="6" height="6"/></g>
<g transform="translate(567,495) scale(4.12)"><rect width="6" height="6"/></g>
<g transform="translate(591,495) scale(4.12)"><rect width="6" height="6"/></g>
<g transform="translate(615,495) scale(4.12)"><rect width="6" height="6"/></g>
<g transform="translate(711,495) scale(4.12)"><rect width="6" height="6"/></g>
<g transform="translate(87,519) scale(4.12)"><rect width="6" height="6"/></g>
<g transform="translate(135,519) scale(4.12)"><rect width="6" height="6"/></g>
<g transform="translate(159,519) scale(4.12)"><rect width="6" height="6"/></g>
<g transform="translate(231,519) scale(4.12)"><rect width="6" height="6"/></g>
<g transform="translate(327,519) scale(4.12)"><rect width="6" height="6"/></g>
<g transform="translate(423,519) scale(4.12)"><rect width="6" height="6"/></g>
<g transform="translate(591,519) scale(4.12)"><rect width="6" height="6"/></g>
<g transform="translate(687,519) scale(4.12)"><rect width="6" height="6"/></g>
<g transform="translate(87,543) scale(4.12)"><rect width="6" height="6"/></g>
<g transform="translate(135,543) scale(4.12)"><rect width="6" height="6"/></g>
<g transform="translate(159,543) scale(4.12)"><rect width="6" height="6"/></g>
<g transform="translate(207,543) scale(4.12)"><rect width="6" height="6"/></g>
<g transform="translate(327,543) scale(4.12)"><rect width="6" height="6"/></g>
<g transform="translate(399,543) scale(4.12)"><rect width="6" height="6"/></g>
<g transform="translate(471,543) scale(4.12)"><rect width="6" height="6"/></g>
<g transform="translate(495,543) scale(4.12)"><rect width="6" height="6"/></g>
<g transform="translate(519,543) scale(4.12)"><rect width="6" height="6"/></g>
<g transform="translate(543,543) scale(4.12)"><rect width="6" height="6"/></g>
<g transform="translate(567,543) scale(4.12)"><rect width="6" height="6"/></g>
<g transform="translate(615,543) scale(4.12)"><rect width="6" height="6"/></g>
<g transform="translate(735,543) scale(4.12)"><rect width="6" height="6"/></g>
<g transform="translate(759,543) scale(4.12)"><rect width="6" height="6"/></g>
<g transform="translate(87,567) scale(4.12)"><rect width="6" height="6"/></g>
<g transform="translate(183,567) scale(4.12)"><rect width="6" height="6"/></g>
<g transform="translate(231,567) scale(4.12)"><rect width="6" height="6"/></g>
<g transform="translate(255,567) scale(4.12)"><rect width="6" height="6"/></g>
<g transform="translate(327,567) scale(4.12)"><rect width="6" height="6"/></g>
<g transform="translate(375,567) scale(4.12)"><rect width="6" height="6"/></g>
<g transform="translate(399,567) scale(4.12)"><rect width="6" height="6"/></g>
<g transform="translate(423,567) scale(4.12)"><rect width="6" height="6"/></g>
<g transform="translate(495,567) scale(4.12)"><rect width="6" height="6"/></g>
<g transform="translate(519,567) scale(4.12)"><rect width="6" height="6"/></g>
<g transform="translate(567,567) scale(4.12)"><rect width="6" height="6"/></g>
<g transform="translate(591,567) scale(4.12)"><rect width="6" height="6"/></g>
<g transform="translate(615,567) scale(4.12)"><rect width="6" height="6"/></g>
<g transform="translate(639,567) scale(4.12)"><rect width="6" height="6"/></g>
<g transform="translate(663,567) scale(4.12)"><rect width="6" height="6"/></g>
<g transform="translate(711,567) scale(4.12)"><rect width="6" height="6"/></g>
<g transform="translate(279,591) scale(4.12)"><rect width="6" height="6"/></g>
<g transform="translate(303,591) scale(4.12)"><rect width="6" height="6"/></g>
<g transform="translate(327,591) scale(4.12)"><rect width="6" height="6"/></g>
<g transform="translate(351,591) scale(4.12)"><rect width="6" height="6"/></g>
<g transform="translate(399,591) scale(4.12)"><rect width="6" height="6"/></g>
<g transform="translate(423,591) scale(4.12)"><rect width="6" height="6"/></g>
<g transform="translate(447,591) scale(4.12)"><rect width="6" height="6"/></g>
<g transform="translate(495,591) scale(4.12)"><rect width="6" height="6"/></g>
<g transform="translate(519,591) scale(4.12)"><rect width="6" height="6"/></g>
<g transform="translate(567,591) scale(4.12)"><rect width="6" height="6"/></g>
<g transform="translate(663,591) scale(4.12)"><rect width="6" height="6"/></g>
<g transform="translate(711,591) scale(4.12)"><rect width="6" height="6"/></g>
<g transform="translate(759,591) scale(4.12)"><rect width="6" height="6"/></g>
<g transform="translate(279,615) scale(4.12)"><rect width="6" height="6"/></g>
<g transform="translate(495,615) scale(4.12)"><rect width="6" height="6"/></g>
<g transform="translate(543,615) scale(4.12)"><rect width="6" height="6"/></g>
<g transform="translate(567,615) scale(4.12)"><rect width="6" height="6"/></g>
<g transform="translate(615,615) scale(4.12)"><rect width="6" height="6"/></g>
<g transform="translate(663,615) scale(4.12)"><rect width="6" height="6"/></g>
<g transform="translate(687,615) scale(4.12)"><rect width="6" height="6"/></g>
<g transform="translate(711,615) scale(4.12)"><rect width="6" height="6"/></g>
<g transform="translate(279,639) scale(4.12)"><rect width="6" height="6"/></g>
<g transform="translate(423,639) scale(4.12)"><rect width="6" height="6"/></g>
<g transform="translate(447,639) scale(4.12)"><rect width="6" height="6"/></g>
<g transform="translate(495,639) scale(4.12)"><rect width="6" height="6"/></g>
<g transform="translate(519,639) scale(4.12)"><rect width="6" height="6"/></g>
<g transform="translate(543,639) scale(4.12)"><rect width="6" height="6"/></g>
<g transform="translate(567,639) scale(4.12)"><rect width="6" height="6"/></g>
<g transform="translate(663,639) scale(4.12)"><rect width="6" height="6"/></g>
<g transform="translate(687,639) scale(4.12)"><rect width="6" height="6"/></g>
<g transform="translate(711,639) scale(4.12)"><rect width="6" height="6"/></g>
<g transform="translate(735,639) scale(4.12)"><rect width="6" height="6"/></g>
<g transform="translate(759,639) scale(4.12)"><rect width="6" height="6"/></g>
<g transform="translate(279,663) scale(4.12)"><rect width="6" height="6"/></g>
<g transform="translate(303,663) scale(4.12)"><rect width="6" height="6"/></g>
<g transform="translate(327,663) scale(4.12)"><rect width="6" height="6"/></g>
<g transform="translate(351,663) scale(4.12)"><rect width="6" height="6"/></g>
<g transform="translate(375,663) scale(4.12)"><rect width="6" height="6"/></g>
<g transform="translate(423,663) scale(4.12)"><rect width="6" height="6"/></g>
<g transform="translate(447,663) scale(4.12)"><rect width="6" height="6"/></g>
<g transform="translate(567,663) scale(4.12)"><rect width="6" height="6"/></g>
<g transform="translate(591,663) scale(4.12)"><rect width="6" height="6"/></g>
<g transform="translate(615,663) scale(4.12)"><rect width="6" height="6"/></g>
<g transform="translate(639,663) scale(4.12)"><rect width="6" height="6"/></g>
<g transform="translate(663,663) scale(4.12)"><rect width="6" height="6"/></g>
<g transform="translate(687,663) scale(4.12)"><rect width="6" height="6"/></g>
<g transform="translate(711,663) scale(4.12)"><rect width="6" height="6"/></g>
<g transform="translate(735,663) scale(4.12)"><rect width="6" height="6"/></g>
<g transform="translate(279,687) scale(4.12)"><rect width="6" height="6"/></g>
<g transform="translate(303,687) scale(4.12)"><rect width="6" height="6"/></g>
<g transform="translate(447,687) scale(4.12)"><rect width="6" height="6"/></g>
<g transform="translate(495,687) scale(4.12)"><rect width="6" height="6"/></g>
<g transform="translate(519,687) scale(4.12)"><rect width="6" height="6"/></g>
<g transform="translate(567,687) scale(4.12)"><rect width="6" height="6"/></g>
<g transform="translate(639,687) scale(4.12)"><rect width="6" height="6"/></g>
<g transform="translate(735,687) scale(4.12)"><rect width="6" height="6"/></g>
<g transform="translate(279,711) scale(4.12)"><rect width="6" height="6"/></g>
<g transform="translate(303,711) scale(4.12)"><rect width="6" height="6"/></g>
<g transform="translate(327,711) scale(4.12)"><rect width="6" height="6"/></g>
<g transform="translate(375,711) scale(4.12)"><rect width="6" height="6"/></g>
<g transform="translate(447,711) scale(4.12)"><rect width="6" height="6"/></g>
<g transform="translate(495,711) scale(4.12)"><rect width="6" height="6"/></g>
<g transform="translate(663,711) scale(4.12)"><rect width="6" height="6"/></g>
<g transform="translate(711,711) scale(4.12)"><rect width="6" height="6"/></g>
<g transform="translate(735,711) scale(4.12)"><rect width="6" height="6"/></g>
<g transform="translate(279,735) scale(4.12)"><rect width="6" height="6"/></g>
<g transform="translate(327,735) scale(4.12)"><rect width="6" height="6"/></g>
<g transform="translate(351,735) scale(4.12)"><rect width="6" height="6"/></g>
<g transform="translate(399,735) scale(4.12)"><rect width="6" height="6"/></g>
<g transform="translate(447,735) scale(4.12)"><rect width="6" height="6"/></g>
<g transform="translate(495,735) scale(4.12)"><rect width="6" height="6"/></g>
<g transform="translate(519,735) scale(4.12)"><rect width="6" height="6"/></g>
<g transform="translate(615,735) scale(4.12)"><rect width="6" height="6"/></g>
<g transform="translate(687,735) scale(4.12)"><rect width="6" height="6"/></g>
<g transform="translate(711,735) scale(4.12)"><rect width="6" height="6"/></g>
<g transform="translate(735,735) scale(4.12)"><rect width="6" height="6"/></g>
<g transform="translate(759,735) scale(4.12)"><rect width="6" height="6"/></g>
<g transform="translate(399,759) scale(4.12)"><rect width="6" height="6"/></g>
<g transform="translate(447,759) scale(4.12)"><rect width="6" height="6"/></g>
<g transform="translate(495,759) scale(4.12)"><rect width="6" height="6"/></g>
<g transform="translate(519,759) scale(4.12)"><rect width="6" height="6"/></g>
<g transform="translate(543,759) scale(4.12)"><rect width="6" height="6"/></g>
<g transform="translate(615,759) scale(4.12)"><rect width="6" height="6"/></g>
<g transform="translate(639,759) scale(4.12)"><rect width="6" height="6"/></g>
<g transform="translate(663,759) scale(4.12)"><rect width="6" height="6"/></g>
<g transform="translate(687,759) scale(4.12)"><rect width="6" height="6"/></g>
<g transform="translate(711,759) scale(4.12)"><rect width="6" height="6"/></g>
<g transform="translate(735,759) scale(4.12)"><rect width="6" height="6"/></g>
<g transform="translate(87,87)"><g transform="scale(12)"><path d="M0,0v14h14V0H0z M12,12H2V2h10V12z"/></g></g>
<g transform="translate(615,87)"><g transform="scale(12)"><path d="M0,0v14h14V0H0z M12,12H2V2h10V12z"/></g></g>
<g transform="translate(87,615)"><g transform="scale(12)"><path d="M0,0v14h14V0H0z M12,12H2V2h10V12z"/></g></g>
<g transform="translate(135,135)"><g transform="scale(12)"><rect width="6" height="6"/></g></g>
<g transform="translate(663,135)"><g transform="scale(12)"><rect width="6" height="6"/></g></g>
<g transform="translate(135,663)"><g transform="scale(12)"><rect width="6" height="6"/></g></g>
</g><g transform="translate(87,29.568113321278) scale(0.71599758890898)"><path fill="#FFFFFF" d="M20.21484375,119.921875l-18.994140625-71.58203125l9.716796875,0l10.888671875,46.923828125q1.7578125,7.373046875,3.02734375,14.6484375q2.734375-11.474609375,3.22265625-13.232421875l13.623046875-48.33984375l11.42578125,0l10.25390625,36.23046875q3.857421875,13.4765625,5.56640625,25.341796875q1.3671875-6.787109375,3.564453125-15.576171875l11.23046875-45.99609375l9.521484375,0l-19.62890625,71.58203125l-9.130859375,0l-15.087890625-54.541015625q-1.904296875-6.8359375-2.24609375-8.3984375q-1.123046875,4.931640625-2.099609375,8.3984375l-15.185546875,54.541015625l-9.66796875,0z M103.7109375,119.921875l0-71.58203125l9.47265625,0l0,71.58203125l-9.47265625,0z M125.341796875,98.4375l0-8.837890625l27.001953125,0l0,8.837890625l-27.001953125,0z M163.671875,119.921875l0-71.58203125l48.291015625,0l0,8.447265625l-38.818359375,0l0,22.16796875l33.59375,0l0,8.447265625l-33.59375,0l0,32.51953125l-9.47265625,0z M225.87890625,119.921875l0-71.58203125l9.47265625,0l0,71.58203125l-9.47265625,0z  M281.4453125,119.921875l0-71.58203125l9.47265625,0l0,71.58203125l-9.47265625,0z M307.51953125,119.921875l0-71.58203125l9.716796875,0l37.59765625,56.201171875l0-56.201171875l9.08203125,0l0,71.58203125l-9.716796875,0l-37.59765625-56.25l0,56.25l-9.08203125,0z M380.322265625,119.921875l0-71.58203125l48.291015625,0l0,8.447265625l-38.818359375,0l0,22.16796875l33.59375,0l0,8.447265625l-33.59375,0l0,32.51953125l-9.47265625,0z M438.037109375,85.05859375q0-17.822265625,9.5703125-27.9052734375t24.70703125-10.0830078125q9.912109375,0,17.87109375,4.736328125t12.1337890625,13.2080078125t4.1748046875,19.2138671875q0,10.888671875-4.39453125,19.482421875t-12.451171875,13.0126953125t-17.3828125,4.4189453125q-10.107421875,0-18.06640625-4.8828125t-12.060546875-13.330078125t-4.1015625-17.87109375z M447.802734375,85.205078125q0,12.939453125,6.9580078125,20.3857421875t17.4560546875,7.4462890625q10.693359375,0,17.6025390625-7.51953125t6.9091796875-21.337890625q0-8.740234375-2.9541015625-15.2587890625t-8.642578125-10.107421875t-12.7685546875-3.5888671875q-10.05859375,0-17.3095703125,6.9091796875t-7.2509765625,23.0712890625z M518.84765625,119.921875l0-71.58203125l31.73828125,0q9.5703125,0,14.55078125,1.9287109375t7.958984375,6.8115234375t2.978515625,10.791015625q0,7.6171875-4.931640625,12.841796875t-15.234375,6.640625q3.759765625,1.806640625,5.712890625,3.564453125q4.150390625,3.80859375,7.861328125,9.521484375l12.451171875,19.482421875l-11.9140625,0l-9.47265625-14.892578125q-4.150390625-6.4453125-6.8359375-9.86328125t-4.8095703125-4.78515625t-4.3212890625-1.904296875q-1.611328125-0.341796875-5.2734375-0.341796875l-10.986328125,0l0,31.787109375l-9.47265625,0z M528.3203125,79.931640625l20.361328125,0q6.494140625,0,10.15625-1.3427734375t5.56640625-4.296875t1.904296875-6.4208984375q0-5.078125-3.6865234375-8.349609375t-11.6455078125-3.271484375l-22.65625,0l0,23.681640625z M590.625,119.921875l0-71.58203125l14.2578125,0l16.943359375,50.68359375q2.34375,7.080078125,3.41796875,10.595703125q1.220703125-3.90625,3.80859375-11.474609375l17.138671875-49.8046875l12.744140625,0l0,71.58203125l-9.130859375,0l0-59.912109375l-20.80078125,59.912109375l-8.544921875,0l-20.703125-60.9375l0,60.9375l-9.130859375,0z M666.357421875,119.921875l27.490234375-71.58203125l10.205078125,0l29.296875,71.58203125l-10.791015625,0l-8.349609375-21.6796875l-29.931640625,0l-7.861328125,21.6796875l-10.05859375,0z M687.01171875,90.52734375l24.267578125,0l-7.470703125-19.82421875q-3.41796875-9.033203125-5.078125-14.84375q-1.3671875,6.884765625-3.857421875,13.671875z M759.130859375,119.921875l0-63.134765625l-23.583984375,0l0-8.447265625l56.73828125,0l0,8.447265625l-23.681640625,0l0,63.134765625l-9.47265625,0z M803.61328125,119.921875l0-71.58203125l9.47265625,0l0,71.58203125l-9.47265625,0z M826.904296875,85.05859375q0-17.822265625,9.5703125-27.9052734375t24.70703125-10.0830078125q9.912109375,0,17.87109375,4.736328125t12.1337890625,13.2080078125t4.1748046875,19.2138671875q0,10.888671875-4.39453125,19.482421875t-12.451171875,13.0126953125t-17.3828125,4.4189453125q-10.107421875,0-18.06640625-4.8828125t-12.060546875-13.330078125t-4.1015625-17.87109375z M836.669921875,85.205078125q0,12.939453125,6.9580078125,20.3857421875t17.4560546875,7.4462890625q10.693359375,0,17.6025390625-7.51953125t6.9091796875-21.337890625q0-8.740234375-2.9541015625-15.2587890625t-8.642578125-10.107421875t-12.7685546875-3.5888671875q-10.05859375,0-17.3095703125,6.9091796875t-7.2509765625,23.0712890625z M907.470703125,119.921875l0-71.58203125l9.716796875,0l37.59765625,56.201171875l0-56.201171875l9.08203125,0l0,71.58203125l-9.716796875,0l-37.59765625-56.25l0,56.25l-9.08203125,0z"/></g></svg>
