<?xml version="1.0" ?>
<svg viewBox="0 0 64 64" xmlns="http://www.w3.org/2000/svg">
    <defs>
        <style>.cls-1,.cls-2{stroke:#224a23;stroke-width:1.5px;}.cls-1{stroke-linejoin:round;fill:#89c68b}.cls-2{fill:#ffdd40}</style>
    </defs>
    <title/>
    <g data-name="Layer 30" id="Layer_30">
        <circle class="cls-1" cx="32" cy="21" r="19" fill="#fff"/>
        <path class="cls-1" d="M56,52h0a6,6,0,0,1,6,6v4a0,0,0,0,1,0,0H50a0,0,0,0,1,0,0V58A6,6,0,0,1,56,52Z"/>
        <circle class="cls-2" cx="56" cy="48" r="4"/>
        <path class="cls-1" d="M44,52h0a6,6,0,0,1,6,6v4a0,0,0,0,1,0,0H38a0,0,0,0,1,0,0V58A6,6,0,0,1,44,52Z"/>
        <circle class="cls-2" cx="44" cy="48" r="4"/>
        <path class="cls-1" d="M32,52h0a6,6,0,0,1,6,6v4a0,0,0,0,1,0,0H26a0,0,0,0,1,0,0V58A6,6,0,0,1,32,52Z"/>
        <circle class="cls-2" cx="32" cy="48" r="4"/>
        <path class="cls-1" d="M20,52h0a6,6,0,0,1,6,6v4a0,0,0,0,1,0,0H14a0,0,0,0,1,0,0V58A6,6,0,0,1,20,52Z"/>
        <circle class="cls-2" cx="20" cy="48" r="4"/>
        <path class="cls-1" d="M8,52H8a6,6,0,0,1,6,6v4a0,0,0,0,1,0,0H2a0,0,0,0,1,0,0V58A6,6,0,0,1,8,52Z"/>
        <circle class="cls-2" cx="8" cy="48" r="4"/>
        <path class="cls-1" d="M25,23,24,13a2,2,0,0,0-2-2h0a2,2,0,0,0-2,2V26l4,4v3h8V24l-4-4H26l-1,1v2l3,3"/>
        <path class="cls-1" d="M39,23l1-10a2,2,0,0,1,2-2h0a2,2,0,0,1,2,2V26l-4,4v3H32V24l4-4h2l1,1v2l-3,3"/>
        <path d="M36,13h0a6.32,6.32,0,0,1-4-4h0a6.32,6.32,0,0,1-4,4h0a6.32,6.32,0,0,1,4,4h0a6.32,6.32,0,0,1,4-4Z" fill="#ffdd40" stroke="#224a23" />
    </g>
</svg>